<?xml version="1.0" encoding="UTF-8" standalone="no"?>
<!-- Created with Inkscape (http://www.inkscape.org/) -->

<svg
   version="1.1"
   id="svg1"
   width="1056"
   height="96"
   viewBox="0 0 1056 96"
   sodipodi:docname="CalvaryConnectsForPhotos.svg"
   inkscape:version="1.3.2 (091e20ef0f, 2023-11-25, custom)"
   xmlns:inkscape="http://www.inkscape.org/namespaces/inkscape"
   xmlns:sodipodi="http://sodipodi.sourceforge.net/DTD/sodipodi-0.dtd"
   xmlns="http://www.w3.org/2000/svg"
   xmlns:svg="http://www.w3.org/2000/svg">
  <defs
     id="defs1" />
  <sodipodi:namedview
     id="namedview1"
     pagecolor="#ffffff"
     bordercolor="#000000"
     borderopacity="0.25"
     inkscape:showpageshadow="2"
     inkscape:pageopacity="0.0"
     inkscape:pagecheckerboard="0"
     inkscape:deskcolor="#d1d1d1"
     inkscape:zoom="0.56818182"
     inkscape:cx="175.12"
     inkscape:cy="47.52"
     inkscape:window-width="1918"
     inkscape:window-height="1078"
     inkscape:window-x="2240"
     inkscape:window-y="0"
     inkscape:window-maximized="1"
     inkscape:current-layer="g1">
    <inkscape:page
       x="0"
       y="0"
       inkscape:label="1"
       id="page1"
       width="1056"
       height="96"
       margin="0"
       bleed="0" />
  </sodipodi:namedview>
  <g
     id="g1"
     inkscape:groupmode="layer"
     inkscape:label="1">
    <text
       id="text1"
       xml:space="preserve"
       x="205.20442"
       y="60.507599"
       style="font-size:16px;stroke-width:1.33333"><tspan
         style="font-variant:normal;font-weight:normal;font-size:64px;font-family:Lora;writing-mode:lr-tb;fill:#000000;fill-opacity:1;fill-rule:nonzero;stroke:none;stroke-width:1.33333"
         x="205.20442"
         y="60.507599"
         id="tspan1">C</tspan></text>
    <path
       id="path1"
       d="m 244.11982,29.989139 c -0.432,-4.010666 -1.83333,-7.130666 -4.208,-9.354666 -2.36533,-2.218667 -5.396,-3.333334 -9.104,-3.333334 -2.26667,0 -4.39067,0.490667 -6.376,1.458667 -1.98933,0.958667 -3.72933,2.333333 -5.22933,4.125333 -1.48934,1.792 -2.66134,3.948 -3.52,6.458667 -0.84934,2.514666 -1.27067,5.353333 -1.27067,8.52 0,4 0.77067,7.541333 2.312,10.625333 1.54133,3.073333 3.60933,5.458666 6.208,7.166666 2.59467,1.697333 5.48,2.541333 8.64667,2.541333 2.76,0 5.484,-0.625333 8.16666,-1.874666 2.692,-1.26 4.896,-3.088 6.604,-5.478667 l 1.66667,1.353334 c -1.83333,2.516 -3.82267,4.453333 -5.95867,5.813333 -2.12533,1.364 -4.24533,2.285333 -6.35466,2.770666 -2.11467,0.5 -4.04134,0.749334 -5.79067,0.749334 -3.20933,0 -6.14667,-0.577334 -8.81333,-1.729334 -2.66667,-1.150666 -4.97334,-2.76 -6.916,-4.833333 -1.932,-2.066666 -3.42667,-4.478666 -4.48,-7.229333 -1.04134,-2.749333 -1.56134,-5.718666 -1.56134,-8.916 0,-3.041333 0.45734,-5.984 1.37467,-8.833333 0.916,-2.86 2.292,-5.442666 4.12533,-7.750666 1.84267,-2.301334 4.16667,-4.134667 6.95734,-5.5 2.792,-1.374667 6.04266,-2.061333 9.75066,-2.061333 2.38534,0 4.65067,0.328 6.792,0.978666 2.13467,0.64 4.18667,1.62 6.14534,2.937333 l -0.33334,-3.458666 h 3.45867 v 14.854666 z"
       style="fill:none;stroke:#000000;stroke-width:0.96;stroke-linecap:round;stroke-linejoin:miter;stroke-miterlimit:4;stroke-dasharray:none;stroke-opacity:1" />
    <text
       id="text2"
       xml:space="preserve"
       x="223.98859"
       y="83.155052"
       style="font-size:16px;stroke-width:1.33333"><tspan
         style="font-variant:normal;font-weight:normal;font-size:64px;font-family:Lora;writing-mode:lr-tb;fill:#000000;fill-opacity:1;fill-rule:nonzero;stroke:none;stroke-width:1.33333"
         x="223.98859"
         y="83.155052"
         id="tspan2">C</tspan></text>
    <path
       id="path2"
       d="m 262.90649,52.634472 c -0.432,-4.009333 -1.83334,-7.129333 -4.208,-9.353333 -2.36534,-2.218667 -5.396,-3.333333 -9.10534,-3.333333 -2.26533,0 -4.39066,0.489333 -6.37466,1.457333 -1.98934,0.958667 -3.72934,2.333333 -5.22934,4.125333 -1.48933,1.792 -2.66133,3.948 -3.52,6.458667 -0.84933,2.516 -1.27066,5.354666 -1.27066,8.521333 0,4 0.77066,7.541333 2.312,10.623999 1.54133,3.073334 3.60933,5.458667 6.208,7.166667 2.59333,1.698667 5.48,2.542667 8.64666,2.542667 2.76,0 5.484,-0.625334 8.16667,-1.876 2.692,-1.26 4.89467,-3.088 6.604,-5.478667 l 1.66667,1.354667 c -1.83334,2.514666 -3.824,4.452 -5.95867,5.812 -2.12533,1.364 -4.24533,2.286666 -6.35467,2.770666 -2.11466,0.5 -4.04133,0.750667 -5.79066,0.750667 -3.20934,0 -6.14667,-0.578667 -8.81334,-1.729333 -2.66666,-1.152 -4.97333,-2.761334 -6.916,-4.833334 -1.93333,-2.068 -3.428,-4.48 -4.48,-7.229333 -1.04133,-2.750666 -1.56266,-5.718666 -1.56266,-8.917333 0,-3.041333 0.45866,-5.984 1.376,-8.833333 0.916,-2.858667 2.29066,-5.442667 4.124,-7.749333 1.844,-2.302667 4.16666,-4.136 6.95866,-5.5 2.792,-1.374667 6.04134,-2.062667 9.75067,-2.062667 2.38533,0 4.65067,0.328 6.79067,0.978667 2.136,0.641333 4.188,1.62 6.14666,2.937333 l -0.33333,-3.457333 h 3.45867 v 14.853333 z"
       style="fill:none;stroke:#000000;stroke-width:0.96;stroke-linecap:round;stroke-linejoin:miter;stroke-miterlimit:4;stroke-dasharray:none;stroke-opacity:1" />
    <text
       id="text3"
       xml:space="preserve"
       transform="matrix(1.3333333,0,0,1.3333333,289.26224,66.654328)"><tspan
         style="font-variant:normal;font-weight:normal;font-size:48px;font-family:Lora;writing-mode:lr-tb;fill:#000000;fill-opacity:1;fill-rule:nonzero;stroke:none"
         x="0"
         y="0"
         id="tspan3">C</tspan></text>
    <path
       id="path3"
       d="m 246.133,27.102 c -0.324,-3.008 -1.375,-5.348 -3.156,-7.016 -1.774,-1.664 -4.047,-2.5 -6.829,-2.5 -1.699,0 -3.293,0.367 -4.781,1.094 -1.492,0.718 -2.797,1.75 -3.922,3.093 -1.117,1.344 -1.996,2.961 -2.64,4.844 -0.637,1.887 -0.953,4.016 -0.953,6.391 0,3 0.578,5.656 1.734,7.969 1.156,2.304 2.707,4.093 4.656,5.375 1.946,1.273 4.11,1.906 6.485,1.906 2.07,0 4.113,-0.469 6.125,-1.406 2.019,-0.946 3.671,-2.317 4.953,-4.11 l 1.25,1.016 c -1.375,1.887 -2.867,3.34 -4.469,4.359 -1.594,1.024 -3.184,1.715 -4.766,2.078 -1.586,0.375 -3.031,0.563 -4.343,0.563 -2.407,0 -4.61,-0.434 -6.61,-1.297 -2,-0.863 -3.73,-2.07 -5.187,-3.625 -1.45,-1.551 -2.571,-3.359 -3.36,-5.422 -0.781,-2.062 -1.172,-4.289 -1.172,-6.687 0,-2.282 0.344,-4.489 1.032,-6.625 0.687,-2.145 1.718,-4.082 3.093,-5.813 1.383,-1.727 3.125,-3.101 5.219,-4.125 2.094,-1.031 4.531,-1.547 7.313,-1.547 1.789,0 3.488,0.246 5.093,0.735 1.602,0.48 3.141,1.214 4.61,2.203 l -0.25,-2.594 h 2.594 v 11.141 z"
       style="fill:none;stroke:#000000;stroke-width:0.72;stroke-linecap:round;stroke-linejoin:miter;stroke-miterlimit:4;stroke-dasharray:none;stroke-opacity:1"
       transform="scale(1.3333333)" />
    <text
       id="text4"
       xml:space="preserve"
       transform="matrix(1.3333333,0,0,1.3333333,333.9982,66.654328)"><tspan
         style="font-variant:normal;font-weight:normal;font-size:48px;font-family:Lora;writing-mode:lr-tb;fill:#000000;fill-opacity:1;fill-rule:nonzero;stroke:none"
         x="0"
         y="0"
         id="tspan4">a</tspan></text>
    <path
       id="path4"
       d="m 267.203,49.992 c -0.094,-0.539 -0.156,-1.019 -0.187,-1.437 -0.032,-0.414 -0.078,-0.848 -0.141,-1.297 -1.094,1.086 -2.277,1.937 -3.547,2.562 -1.262,0.625 -2.594,0.938 -4,0.938 -2.43,0 -4.234,-0.555 -5.422,-1.656 -1.187,-1.102 -1.781,-2.454 -1.781,-4.047 0,-1.477 0.457,-2.754 1.375,-3.828 0.914,-1.071 2.098,-1.954 3.547,-2.641 1.457,-0.688 3.039,-1.195 4.75,-1.531 1.719,-0.332 3.375,-0.485 4.969,-0.453 v -2.985 c 0,-1.113 -0.094,-2.164 -0.282,-3.156 -0.187,-1 -0.605,-1.816 -1.25,-2.453 -0.636,-0.633 -1.664,-0.969 -3.078,-1 -0.929,-0.039 -1.883,0.133 -2.859,0.515 -0.969,0.387 -1.68,1.043 -2.125,1.969 0.258,0.262 0.426,0.559 0.5,0.891 0.082,0.336 0.125,0.648 0.125,0.937 0,0.387 -0.164,0.828 -0.485,1.328 -0.312,0.493 -0.871,0.719 -1.671,0.688 -0.68,0 -1.196,-0.227 -1.547,-0.688 -0.344,-0.468 -0.516,-1.023 -0.516,-1.671 0,-1.082 0.406,-2.055 1.219,-2.922 0.812,-0.864 1.937,-1.551 3.375,-2.063 1.445,-0.508 3.082,-0.765 4.906,-0.765 2.688,0 4.672,0.714 5.953,2.14 1.281,1.418 1.907,3.664 1.875,6.735 0,1.187 0,2.382 0,3.578 0,1.199 -0.011,2.402 -0.031,3.609 -0.012,1.199 -0.016,2.402 -0.016,3.609 0,0.524 -0.023,1.04 -0.062,1.547 -0.031,0.512 -0.078,1.086 -0.141,1.719 0.582,-0.031 1.149,-0.062 1.703,-0.094 0.563,-0.031 1.129,-0.062 1.703,-0.093 v 2.015 z m -0.437,-11.765 c -1.086,0.031 -2.227,0.171 -3.422,0.421 -1.199,0.243 -2.305,0.602 -3.313,1.079 -1.011,0.48 -1.828,1.109 -2.453,1.89 -0.625,0.781 -0.922,1.735 -0.89,2.86 0.062,1.179 0.453,2.062 1.171,2.656 0.727,0.594 1.586,0.89 2.579,0.89 1.312,0 2.453,-0.242 3.421,-0.734 0.977,-0.5 1.946,-1.195 2.907,-2.094 -0.032,-0.351 -0.047,-0.738 -0.047,-1.156 0,-0.414 0,-0.848 0,-1.297 0,-0.156 0.004,-0.664 0.015,-1.531 0.02,-0.863 0.032,-1.859 0.032,-2.984 z"
       style="fill:none;stroke:#000000;stroke-width:0.72;stroke-linecap:round;stroke-linejoin:miter;stroke-miterlimit:4;stroke-dasharray:none;stroke-opacity:1"
       transform="scale(1.3333333)" />
    <text
       id="text5"
       xml:space="preserve"
       transform="matrix(1.3333333,0,0,1.3333333,367.02225,66.654328)"><tspan
         style="font-variant:normal;font-weight:normal;font-size:48px;font-family:Lora;writing-mode:lr-tb;fill:#000000;fill-opacity:1;fill-rule:nonzero;stroke:none"
         x="0"
         y="0"
         id="tspan5">l</tspan></text>
    <path
       id="path5"
       d="m 276.891,48.555 c 1,0 1.687,-0.243 2.062,-0.735 0.383,-0.5 0.609,-1.187 0.672,-2.062 0.07,-0.883 0.109,-1.906 0.109,-3.063 V 19.992 c 0,-0.508 0.004,-0.992 0.016,-1.453 0.02,-0.469 0.062,-1.023 0.125,-1.672 -0.574,0.031 -1.141,0.071 -1.703,0.11 -0.563,0.031 -1.133,0.062 -1.703,0.093 v -2.015 c 1.406,0 2.5,-0.063 3.281,-0.188 0.781,-0.133 1.367,-0.297 1.766,-0.484 0.406,-0.195 0.722,-0.406 0.953,-0.625 h 1.39 l 0.047,31.14 c 0,0.649 -0.015,1.219 -0.047,1.719 -0.031,0.492 -0.093,1.008 -0.187,1.547 0.508,-0.031 1.008,-0.051 1.5,-0.062 0.5,-0.02 1.004,-0.047 1.516,-0.079 v 1.969 h -9.797 z"
       style="fill:none;stroke:#000000;stroke-width:0.72;stroke-linecap:round;stroke-linejoin:miter;stroke-miterlimit:4;stroke-dasharray:none;stroke-opacity:1"
       transform="scale(1.3333333)" />
    <text
       id="text6"
       xml:space="preserve"
       transform="matrix(1.3333333,0,0,1.3333333,384.17423,66.654328)"><tspan
         style="font-variant:normal;font-weight:normal;font-size:48px;font-family:Lora;writing-mode:lr-tb;fill:#000000;fill-opacity:1;fill-rule:nonzero;stroke:none"
         x="0"
         y="0"
         id="tspan6">v</tspan></text>
    <path
       id="path6"
       d="m 299.363,50.133 -6.859,-15.641 c -0.524,-1.219 -0.93,-2.258 -1.219,-3.125 -0.281,-0.863 -0.48,-1.582 -0.594,-2.156 -0.105,-0.57 -0.171,-1.035 -0.203,-1.391 l -2.078,0.141 v -1.969 h 8.844 v 1.438 c -0.961,0 -1.578,0.25 -1.859,0.75 -0.274,0.492 -0.313,1.148 -0.125,1.968 0.195,0.813 0.488,1.684 0.875,2.61 l 3.703,8.453 c 0.25,0.543 0.492,1.109 0.734,1.703 0.238,0.594 0.473,1.211 0.703,1.844 h 0.047 c 0.156,-0.477 0.336,-0.988 0.547,-1.531 0.207,-0.539 0.391,-1.071 0.547,-1.594 l 3.844,-10.5 c 0.257,-0.77 0.531,-1.442 0.812,-2.016 0.289,-0.582 0.5,-1.015 0.625,-1.297 l -3.062,0.141 v -1.969 h 7.578 v 1.438 c -0.7,0 -1.293,0.242 -1.782,0.718 -0.48,0.481 -0.937,1.204 -1.375,2.172 -0.429,0.961 -0.929,2.157 -1.5,3.594 l -6.281,16.219 z"
       style="fill:none;stroke:#000000;stroke-width:0.72;stroke-linecap:round;stroke-linejoin:miter;stroke-miterlimit:4;stroke-dasharray:none;stroke-opacity:1"
       transform="scale(1.3333333)" />
    <text
       id="text7"
       xml:space="preserve"
       transform="matrix(1.3333333,0,0,1.3333333,415.85416,66.654328)"><tspan
         style="font-variant:normal;font-weight:normal;font-size:48px;font-family:Lora;writing-mode:lr-tb;fill:#000000;fill-opacity:1;fill-rule:nonzero;stroke:none"
         x="0"
         y="0"
         id="tspan7">a</tspan></text>
    <path
       id="path7"
       d="m 328.594,49.992 c -0.094,-0.539 -0.156,-1.019 -0.188,-1.437 -0.031,-0.414 -0.078,-0.848 -0.14,-1.297 -1.094,1.086 -2.278,1.937 -3.547,2.562 -1.262,0.625 -2.594,0.938 -4,0.938 -2.43,0 -4.235,-0.555 -5.422,-1.656 -1.188,-1.102 -1.781,-2.454 -1.781,-4.047 0,-1.477 0.457,-2.754 1.375,-3.828 0.914,-1.071 2.097,-1.954 3.547,-2.641 1.457,-0.688 3.039,-1.195 4.75,-1.531 1.718,-0.332 3.374,-0.485 4.968,-0.453 v -2.985 c 0,-1.113 -0.094,-2.164 -0.281,-3.156 -0.187,-1 -0.605,-1.816 -1.25,-2.453 -0.637,-0.633 -1.664,-0.969 -3.078,-1 -0.93,-0.039 -1.883,0.133 -2.859,0.515 -0.969,0.387 -1.68,1.043 -2.126,1.969 0.258,0.262 0.426,0.559 0.5,0.891 0.083,0.336 0.126,0.648 0.126,0.937 0,0.387 -0.165,0.828 -0.485,1.328 -0.312,0.493 -0.871,0.719 -1.672,0.688 -0.679,0 -1.195,-0.227 -1.547,-0.688 -0.343,-0.468 -0.515,-1.023 -0.515,-1.671 0,-1.082 0.406,-2.055 1.219,-2.922 0.812,-0.864 1.937,-1.551 3.374,-2.063 1.446,-0.508 3.083,-0.765 4.907,-0.765 2.687,0 4.672,0.714 5.953,2.14 1.281,1.418 1.906,3.664 1.875,6.735 0,1.187 0,2.382 0,3.578 0,1.199 -0.012,2.402 -0.031,3.609 -0.012,1.199 -0.016,2.402 -0.016,3.609 0,0.524 -0.023,1.04 -0.062,1.547 -0.032,0.512 -0.079,1.086 -0.141,1.719 0.582,-0.031 1.148,-0.062 1.703,-0.094 0.562,-0.031 1.129,-0.062 1.703,-0.093 v 2.015 z m -0.438,-11.765 c -1.086,0.031 -2.226,0.171 -3.422,0.421 -1.199,0.243 -2.304,0.602 -3.312,1.079 -1.012,0.48 -1.828,1.109 -2.453,1.89 -0.625,0.781 -0.922,1.735 -0.891,2.86 0.063,1.179 0.453,2.062 1.172,2.656 0.727,0.594 1.586,0.89 2.578,0.89 1.313,0 2.453,-0.242 3.422,-0.734 0.977,-0.5 1.945,-1.195 2.906,-2.094 -0.031,-0.351 -0.047,-0.738 -0.047,-1.156 0,-0.414 0,-0.848 0,-1.297 0,-0.156 0.004,-0.664 0.016,-1.531 0.02,-0.863 0.031,-1.859 0.031,-2.984 z"
       style="fill:none;stroke:#000000;stroke-width:0.72;stroke-linecap:round;stroke-linejoin:miter;stroke-miterlimit:4;stroke-dasharray:none;stroke-opacity:1"
       transform="scale(1.3333333)" />
    <text
       id="text8"
       xml:space="preserve"
       transform="matrix(1.3333333,0,0,1.3333333,448.8782,66.654328)"><tspan
         style="font-variant:normal;font-weight:normal;font-size:48px;font-family:Lora;writing-mode:lr-tb;fill:#000000;fill-opacity:1;fill-rule:nonzero;stroke:none"
         x="0"
         y="0"
         id="tspan8">r</tspan></text>
    <path
       id="path8"
       d="m 338.77,48.555 c 0.988,0 1.675,-0.243 2.062,-0.735 0.383,-0.5 0.609,-1.187 0.672,-2.062 0.062,-0.883 0.094,-1.906 0.094,-3.063 V 31.758 c 0,-0.52 0.004,-1.035 0.015,-1.547 0.02,-0.508 0.082,-1.035 0.188,-1.578 -0.586,0.031 -1.156,0.058 -1.719,0.078 -0.555,0.012 -1.117,0.031 -1.687,0.062 v -1.968 h 1.484 c 1.375,0 2.32,-0.133 2.844,-0.407 0.531,-0.269 0.972,-0.566 1.328,-0.89 h 1.39 c 0.063,0.512 0.11,1.148 0.141,1.906 0.031,0.75 0.066,1.699 0.109,2.844 0.477,-0.789 1.129,-1.57 1.954,-2.344 0.832,-0.769 1.769,-1.41 2.812,-1.922 1.039,-0.508 2.141,-0.765 3.297,-0.765 0.894,0 1.676,0.242 2.344,0.718 0.675,0.481 1.015,1.246 1.015,2.297 0,0.262 -0.086,0.578 -0.25,0.953 -0.156,0.367 -0.414,0.684 -0.765,0.953 -0.356,0.274 -0.821,0.407 -1.391,0.407 -0.711,-0.032 -1.273,-0.313 -1.687,-0.844 -0.407,-0.531 -0.563,-1.145 -0.469,-1.844 -0.805,-0.031 -1.633,0.18 -2.485,0.625 -0.843,0.449 -1.636,1.063 -2.375,1.844 -0.73,0.781 -1.382,1.703 -1.953,2.766 l 0.047,11.796 c 0,0.649 -0.012,1.219 -0.031,1.719 -0.012,0.492 -0.07,1.008 -0.172,1.547 0.52,-0.031 1.023,-0.051 1.516,-0.062 0.5,-0.02 1.004,-0.047 1.515,-0.079 v 1.969 h -9.843 z"
       style="fill:none;stroke:#000000;stroke-width:0.72;stroke-linecap:round;stroke-linejoin:miter;stroke-miterlimit:4;stroke-dasharray:none;stroke-opacity:1"
       transform="scale(1.3333333)" />
    <text
       id="text9"
       xml:space="preserve"
       transform="matrix(1.3333333,0,0,1.3333333,477.67825,66.654328)"><tspan
         style="font-variant:normal;font-weight:normal;font-size:48px;font-family:Lora;writing-mode:lr-tb;fill:#000000;fill-opacity:1;fill-rule:nonzero;stroke:none"
         x="0"
         y="0"
         id="tspan9">y</tspan></text>
    <path
       id="path9"
       d="m 364.07,63.008 c -1,0 -1.855,-0.246 -2.562,-0.735 -0.699,-0.48 -1.047,-1.214 -1.047,-2.203 0,-0.574 0.191,-1.101 0.578,-1.578 0.383,-0.48 0.879,-0.719 1.484,-0.719 0.77,-0.031 1.289,0.207 1.563,0.719 0.269,0.508 0.406,0.957 0.406,1.344 0,0.094 0,0.191 0,0.297 0,0.113 -0.015,0.238 -0.047,0.375 0.102,0.062 0.282,0.094 0.532,0.094 0.382,0 0.8,-0.164 1.25,-0.485 0.445,-0.324 0.847,-0.789 1.203,-1.39 0.414,-0.7 0.898,-1.758 1.453,-3.172 0.562,-1.407 1.195,-3.086 1.906,-5.032 l -7.484,-16.031 c -0.836,-1.789 -1.438,-3.211 -1.813,-4.265 -0.367,-1.063 -0.609,-1.848 -0.734,-2.36 l -2.313,0.094 v -1.969 h 9.938 v 1.438 h -0.188 c -1.343,0.093 -2.086,0.601 -2.218,1.515 -0.125,0.907 0.242,2.293 1.109,4.157 l 5.625,12.046 c 0.727,-2.05 1.426,-4.078 2.094,-6.078 0.675,-2 1.351,-3.988 2.031,-5.968 0.25,-0.707 0.508,-1.438 0.781,-2.188 0.281,-0.75 0.555,-1.422 0.828,-2.016 0.27,-0.593 0.516,-0.968 0.735,-1.125 l -3.313,0.188 v -1.969 h 7.547 v 1.438 c -1.187,0.449 -2.078,1.195 -2.672,2.234 -0.594,1.043 -1.195,2.383 -1.797,4.016 l -6,16.75 c -0.961,2.687 -1.84,4.961 -2.64,6.828 -0.805,1.875 -1.684,3.301 -2.641,4.281 -0.961,0.977 -2.156,1.469 -3.594,1.469 z"
       style="fill:none;stroke:#000000;stroke-width:0.72;stroke-linecap:round;stroke-linejoin:miter;stroke-miterlimit:4;stroke-dasharray:none;stroke-opacity:1"
       transform="scale(1.3333333)" />
    <text
       id="text10"
       xml:space="preserve"
       transform="matrix(1.3333333,0,0,1.3333333,528.30225,66.654328)"><tspan
         style="font-variant:normal;font-weight:normal;font-size:48px;font-family:Lora;writing-mode:lr-tb;fill:#000000;fill-opacity:1;fill-rule:nonzero;stroke:none"
         x="0"
         y="0"
         id="tspan10">C</tspan></text>
    <path
       id="path10"
       d="m 425.414,27.102 c -0.324,-3.008 -1.375,-5.348 -3.156,-7.016 -1.774,-1.664 -4.047,-2.5 -6.828,-2.5 -1.7,0 -3.293,0.367 -4.782,1.094 -1.492,0.718 -2.796,1.75 -3.921,3.093 -1.118,1.344 -1.997,2.961 -2.641,4.844 -0.637,1.887 -0.953,4.016 -0.953,6.391 0,3 0.578,5.656 1.734,7.969 1.156,2.304 2.707,4.093 4.656,5.375 1.946,1.273 4.11,1.906 6.485,1.906 2.07,0 4.113,-0.469 6.125,-1.406 2.019,-0.946 3.672,-2.317 4.953,-4.11 l 1.25,1.016 c -1.375,1.887 -2.867,3.34 -4.469,4.359 -1.594,1.024 -3.183,1.715 -4.765,2.078 -1.586,0.375 -3.032,0.563 -4.344,0.563 -2.406,0 -4.61,-0.434 -6.61,-1.297 -2,-0.863 -3.73,-2.07 -5.187,-3.625 -1.449,-1.551 -2.57,-3.359 -3.359,-5.422 -0.782,-2.062 -1.172,-4.289 -1.172,-6.687 0,-2.282 0.343,-4.489 1.031,-6.625 0.687,-2.145 1.719,-4.082 3.094,-5.813 1.383,-1.727 3.125,-3.101 5.218,-4.125 2.094,-1.031 4.532,-1.547 7.313,-1.547 1.789,0 3.488,0.246 5.094,0.735 1.601,0.48 3.14,1.214 4.609,2.203 l -0.25,-2.594 h 2.594 v 11.141 z"
       style="fill:none;stroke:#000000;stroke-width:0.72;stroke-linecap:round;stroke-linejoin:miter;stroke-miterlimit:4;stroke-dasharray:none;stroke-opacity:1"
       transform="scale(1.3333333)" />
    <text
       id="text11"
       xml:space="preserve"
       transform="matrix(1.3333333,0,0,1.3333333,573.03824,66.654328)"><tspan
         style="font-variant:normal;font-weight:normal;font-size:48px;font-family:Lora;writing-mode:lr-tb;fill:#000000;fill-opacity:1;fill-rule:nonzero;stroke:none"
         x="0"
         y="0"
         id="tspan11">o</tspan></text>
    <path
       id="path11"
       d="m 443.793,50.758 c -2.242,0 -4.273,-0.524 -6.094,-1.563 -1.824,-1.039 -3.273,-2.476 -4.344,-4.312 -1.074,-1.844 -1.609,-3.945 -1.609,-6.313 0,-2.531 0.524,-4.8 1.578,-6.812 1.063,-2.02 2.504,-3.613 4.328,-4.781 1.821,-1.165 3.868,-1.75 6.141,-1.75 2.238,0 4.269,0.539 6.094,1.609 1.82,1.074 3.273,2.523 4.359,4.344 1.094,1.824 1.641,3.902 1.641,6.234 0,2.469 -0.539,4.719 -1.61,6.75 -1.074,2.031 -2.523,3.641 -4.343,4.828 -1.825,1.176 -3.872,1.766 -6.141,1.766 z m 0.391,-1.922 c 1.687,0 3.023,-0.477 4.015,-1.438 1,-0.957 1.711,-2.203 2.141,-3.734 0.437,-1.539 0.656,-3.16 0.656,-4.859 0,-1.438 -0.137,-2.848 -0.406,-4.235 -0.274,-1.394 -0.699,-2.66 -1.281,-3.797 -0.575,-1.132 -1.321,-2.035 -2.235,-2.703 -0.906,-0.675 -2,-1.015 -3.281,-1.015 -1.668,0 -3.027,0.48 -4.078,1.437 -1.055,0.961 -1.828,2.211 -2.328,3.75 -0.5,1.531 -0.75,3.18 -0.75,4.938 0,1.98 0.269,3.859 0.812,5.64 0.551,1.774 1.383,3.219 2.5,4.344 1.125,1.117 2.535,1.672 4.235,1.672 z"
       style="fill:none;stroke:#000000;stroke-width:0.72;stroke-linecap:round;stroke-linejoin:miter;stroke-miterlimit:4;stroke-dasharray:none;stroke-opacity:1"
       transform="scale(1.3333333)" />
    <text
       id="text12"
       xml:space="preserve"
       transform="matrix(1.3333333,0,0,1.3333333,610.47818,66.654328)"><tspan
         style="font-variant:normal;font-weight:normal;font-size:48px;font-family:Lora;writing-mode:lr-tb;fill:#000000;fill-opacity:1;fill-rule:nonzero;stroke:none"
         x="0"
         y="0"
         id="tspan12">n</tspan></text>
    <path
       id="path12"
       d="m 459.969,49.992 v -1.437 c 0.988,0 1.676,-0.243 2.062,-0.735 0.383,-0.5 0.61,-1.187 0.672,-2.062 0.063,-0.883 0.094,-1.906 0.094,-3.063 l 0.047,-10.937 c 0,-0.52 0.008,-1.035 0.031,-1.547 0.02,-0.508 0.078,-1.035 0.172,-1.578 -0.586,0.031 -1.156,0.062 -1.719,0.094 -0.555,0.031 -1.117,0.062 -1.687,0.093 v -2.015 c 1.406,0 2.468,-0.063 3.187,-0.188 0.719,-0.125 1.254,-0.281 1.61,-0.469 0.351,-0.195 0.64,-0.41 0.859,-0.64 h 1.391 c 0.031,0.23 0.05,0.492 0.062,0.781 0.02,0.281 0.047,0.602 0.078,0.953 0.039,0.356 0.063,0.758 0.063,1.203 0.695,-0.613 1.468,-1.16 2.312,-1.64 0.852,-0.477 1.75,-0.86 2.688,-1.141 0.945,-0.289 1.882,-0.437 2.812,-0.437 2.789,0 4.82,0.875 6.094,2.625 1.281,1.742 1.922,4.449 1.922,8.125 v 8.921 c 0,0.649 -0.012,1.219 -0.031,1.719 -0.012,0.492 -0.063,1.008 -0.157,1.547 0.508,-0.031 1.008,-0.051 1.5,-0.062 0.5,-0.02 1.008,-0.047 1.531,-0.079 v 1.969 h -9.796 v -1.437 c 0.988,0 1.675,-0.243 2.062,-0.735 0.383,-0.5 0.61,-1.187 0.672,-2.062 0.062,-0.883 0.094,-1.906 0.094,-3.063 v -6.718 c -0.032,-2.75 -0.492,-4.829 -1.375,-6.235 -0.875,-1.414 -2.258,-2.101 -4.141,-2.062 -1.156,0.031 -2.289,0.336 -3.39,0.906 -1.106,0.574 -2.024,1.309 -2.75,2.203 0.031,0.262 0.046,0.555 0.046,0.875 0,0.313 0,0.648 0,1 l -0.046,12.234 c 0,0.649 -0.012,1.219 -0.032,1.719 -0.011,0.492 -0.07,1.008 -0.172,1.547 0.508,-0.031 1.016,-0.051 1.516,-0.062 0.5,-0.02 1.004,-0.047 1.516,-0.079 v 1.969 z"
       style="fill:none;stroke:#000000;stroke-width:0.72;stroke-linecap:round;stroke-linejoin:miter;stroke-miterlimit:4;stroke-dasharray:none;stroke-opacity:1"
       transform="scale(1.3333333)" />
    <text
       id="text13"
       xml:space="preserve"
       transform="matrix(1.3333333,0,0,1.3333333,649.3262,66.654328)"><tspan
         style="font-variant:normal;font-weight:normal;font-size:48px;font-family:Lora;writing-mode:lr-tb;fill:#000000;fill-opacity:1;fill-rule:nonzero;stroke:none"
         x="0"
         y="0"
         id="tspan13">n</tspan></text>
    <path
       id="path13"
       d="m 489.105,49.992 v -1.437 c 0.989,0 1.676,-0.243 2.063,-0.735 0.383,-0.5 0.609,-1.187 0.672,-2.062 0.062,-0.883 0.094,-1.906 0.094,-3.063 l 0.046,-10.937 c 0,-0.52 0.008,-1.035 0.032,-1.547 0.019,-0.508 0.078,-1.035 0.172,-1.578 -0.586,0.031 -1.157,0.062 -1.719,0.094 -0.555,0.031 -1.117,0.062 -1.688,0.093 v -2.015 c 1.407,0 2.469,-0.063 3.188,-0.188 0.719,-0.125 1.254,-0.281 1.609,-0.469 0.352,-0.195 0.641,-0.41 0.86,-0.64 h 1.39 c 0.031,0.23 0.051,0.492 0.063,0.781 0.019,0.281 0.047,0.602 0.078,0.953 0.039,0.356 0.062,0.758 0.062,1.203 0.696,-0.613 1.469,-1.16 2.313,-1.64 0.851,-0.477 1.75,-0.86 2.687,-1.141 0.946,-0.289 1.883,-0.437 2.813,-0.437 2.789,0 4.82,0.875 6.094,2.625 1.281,1.742 1.921,4.449 1.921,8.125 v 8.921 c 0,0.649 -0.011,1.219 -0.031,1.719 -0.012,0.492 -0.062,1.008 -0.156,1.547 0.508,-0.031 1.008,-0.051 1.5,-0.062 0.5,-0.02 1.008,-0.047 1.531,-0.079 v 1.969 h -9.797 v -1.437 c 0.989,0 1.676,-0.243 2.063,-0.735 0.383,-0.5 0.609,-1.187 0.672,-2.062 0.062,-0.883 0.093,-1.906 0.093,-3.063 v -6.718 c -0.031,-2.75 -0.492,-4.829 -1.375,-6.235 -0.875,-1.414 -2.257,-2.101 -4.14,-2.062 -1.156,0.031 -2.289,0.336 -3.391,0.906 -1.105,0.574 -2.023,1.309 -2.75,2.203 0.031,0.262 0.047,0.555 0.047,0.875 0,0.313 0,0.648 0,1 l -0.047,12.234 c 0,0.649 -0.012,1.219 -0.031,1.719 -0.012,0.492 -0.07,1.008 -0.172,1.547 0.508,-0.031 1.016,-0.051 1.516,-0.062 0.5,-0.02 1.004,-0.047 1.515,-0.079 v 1.969 z"
       style="fill:none;stroke:#000000;stroke-width:0.72;stroke-linecap:round;stroke-linejoin:miter;stroke-miterlimit:4;stroke-dasharray:none;stroke-opacity:1"
       transform="scale(1.3333333)" />
    <text
       id="text14"
       xml:space="preserve"
       transform="matrix(1.3333333,0,0,1.3333333,688.17423,66.654328)"><tspan
         style="font-variant:normal;font-weight:normal;font-size:48px;font-family:Lora;writing-mode:lr-tb;fill:#000000;fill-opacity:1;fill-rule:nonzero;stroke:none"
         x="0"
         y="0"
         id="tspan14">e</tspan></text>
    <path
       id="path14"
       d="m 529.863,50.758 c -2.211,0 -4.203,-0.524 -5.984,-1.563 -1.774,-1.039 -3.172,-2.507 -4.203,-4.406 -1.024,-1.906 -1.531,-4.156 -1.531,-6.75 0,-2.238 0.503,-4.332 1.515,-6.281 1.008,-1.957 2.426,-3.535 4.25,-4.735 1.82,-1.195 3.93,-1.796 6.328,-1.796 1.344,0 2.598,0.218 3.766,0.656 1.164,0.429 2.195,1.086 3.094,1.969 0.894,0.875 1.597,1.98 2.109,3.312 0.52,1.324 0.781,2.883 0.781,4.672 l -16.906,0.281 c 0,2.438 0.266,4.578 0.797,6.422 0.531,1.836 1.383,3.258 2.562,4.266 1.188,1 2.707,1.5 4.563,1.5 1,0 2.016,-0.172 3.047,-0.516 1.039,-0.351 2.008,-0.832 2.906,-1.437 0.895,-0.614 1.613,-1.286 2.156,-2.016 l 1.157,0.953 c -0.868,1.344 -1.907,2.418 -3.125,3.219 -1.211,0.804 -2.454,1.375 -3.735,1.719 -1.281,0.351 -2.465,0.531 -3.547,0.531 z m -6.625,-16.656 h 12.235 c 0,-1.145 -0.168,-2.254 -0.5,-3.329 -0.336,-1.07 -0.887,-1.953 -1.657,-2.64 -0.773,-0.688 -1.781,-1.031 -3.031,-1.031 -1.855,0 -3.398,0.554 -4.625,1.656 -1.23,1.105 -2.039,2.887 -2.422,5.344 z"
       style="fill:none;stroke:#000000;stroke-width:0.72;stroke-linecap:round;stroke-linejoin:miter;stroke-miterlimit:4;stroke-dasharray:none;stroke-opacity:1"
       transform="scale(1.3333333)" />
    <text
       id="text15"
       xml:space="preserve"
       transform="matrix(1.3333333,0,0,1.3333333,722.54227,66.654328)"><tspan
         style="font-variant:normal;font-weight:normal;font-size:48px;font-family:Lora;writing-mode:lr-tb;fill:#000000;fill-opacity:1;fill-rule:nonzero;stroke:none"
         x="0"
         y="0"
         id="tspan15">c</tspan></text>
    <path
       id="path15"
       d="m 555.734,50.758 c -2.148,0 -4.125,-0.485 -5.937,-1.453 -1.805,-0.977 -3.242,-2.391 -4.313,-4.235 -1.074,-1.843 -1.609,-4.054 -1.609,-6.64 0,-1.664 0.301,-3.282 0.906,-4.844 0.614,-1.57 1.473,-2.988 2.578,-4.25 1.102,-1.27 2.422,-2.27 3.953,-3 1.54,-0.738 3.239,-1.109 5.094,-1.109 1.789,0 3.348,0.273 4.672,0.812 1.332,0.543 2.363,1.262 3.094,2.156 0.738,0.899 1.109,1.875 1.109,2.938 0,0.699 -0.195,1.297 -0.578,1.797 -0.387,0.5 -0.945,0.75 -1.672,0.75 -0.804,0.031 -1.375,-0.219 -1.719,-0.75 -0.335,-0.532 -0.5,-1.004 -0.5,-1.422 0,-0.313 0.047,-0.633 0.141,-0.969 0.102,-0.344 0.297,-0.66 0.578,-0.953 -0.25,-0.758 -0.699,-1.32 -1.343,-1.688 -0.637,-0.375 -1.297,-0.613 -1.985,-0.718 -0.687,-0.114 -1.258,-0.172 -1.703,-0.172 -2.18,0 -4.012,0.871 -5.5,2.609 -1.492,1.742 -2.234,4.278 -2.234,7.61 0,2.148 0.343,4.054 1.031,5.718 0.687,1.657 1.656,2.961 2.906,3.907 1.25,0.937 2.692,1.406 4.328,1.406 1.5,0 2.938,-0.395 4.313,-1.188 1.375,-0.8 2.445,-1.781 3.218,-2.937 l 1.25,0.969 c -0.835,1.343 -1.835,2.433 -3,3.265 -1.167,0.824 -2.371,1.43 -3.609,1.813 -1.23,0.382 -2.387,0.578 -3.469,0.578 z"
       style="fill:none;stroke:#000000;stroke-width:0.72;stroke-linecap:round;stroke-linejoin:miter;stroke-miterlimit:4;stroke-dasharray:none;stroke-opacity:1"
       transform="scale(1.3333333)" />
    <text
       id="text16"
       xml:space="preserve"
       transform="matrix(1.3333333,0,0,1.3333333,756.27029,66.654328)"><tspan
         style="font-variant:normal;font-weight:normal;font-size:48px;font-family:Lora;writing-mode:lr-tb;fill:#000000;fill-opacity:1;fill-rule:nonzero;stroke:none"
         x="0"
         y="0"
         id="tspan16">t</tspan></text>
    <path
       id="path16"
       d="m 578.344,50.758 c -0.742,0 -1.496,-0.106 -2.266,-0.313 -0.762,-0.211 -1.469,-0.613 -2.125,-1.218 -0.656,-0.614 -1.18,-1.504 -1.562,-2.672 -0.387,-1.164 -0.579,-2.707 -0.579,-4.625 l 0.094,-13.922 -3.687,0.047 v -2.063 c 0.82,-0.031 1.664,-0.344 2.531,-0.937 0.863,-0.594 1.641,-1.399 2.328,-2.422 0.688,-1.02 1.16,-2.141 1.422,-3.36 h 1.625 v 6.719 h 8.063 v 1.875 l -8.063,0.094 -0.094,13.344 c 0,1.437 0.117,2.664 0.36,3.672 0.238,1.011 0.629,1.773 1.171,2.281 0.551,0.512 1.258,0.765 2.126,0.765 0.894,0 1.734,-0.253 2.515,-0.765 0.781,-0.508 1.477,-1.211 2.094,-2.11 l 1.297,1.047 c -0.711,1.063 -1.406,1.899 -2.094,2.5 -0.688,0.606 -1.355,1.059 -2,1.36 -0.637,0.312 -1.227,0.504 -1.766,0.578 -0.543,0.082 -1.007,0.125 -1.39,0.125 z"
       style="fill:none;stroke:#000000;stroke-width:0.72;stroke-linecap:round;stroke-linejoin:miter;stroke-miterlimit:4;stroke-dasharray:none;stroke-opacity:1"
       transform="scale(1.3333333)" />
    <text
       id="text17"
       xml:space="preserve"
       transform="matrix(1.3333333,0,0,1.3333333,781.03824,66.654328)"><tspan
         style="font-variant:normal;font-weight:normal;font-size:48px;font-family:Lora;writing-mode:lr-tb;fill:#000000;fill-opacity:1;fill-rule:nonzero;stroke:none"
         x="0"
         y="0"
         id="tspan17">s</tspan></text>
    <path
       id="path17"
       d="m 597.73,50.758 c -1.605,0 -3.031,-0.219 -4.281,-0.656 -1.242,-0.426 -2.261,-0.911 -3.062,-1.454 l 0.187,1.688 h -2.015 l -0.282,-8.266 h 1.485 c 0.062,1.313 0.426,2.492 1.093,3.532 0.676,1.043 1.54,1.851 2.594,2.421 1.063,0.575 2.203,0.86 3.422,0.86 0.832,0 1.645,-0.133 2.438,-0.406 0.8,-0.27 1.472,-0.68 2.015,-1.235 0.551,-0.562 0.828,-1.273 0.828,-2.14 0,-0.895 -0.265,-1.641 -0.797,-2.235 -0.531,-0.594 -1.23,-1.113 -2.093,-1.562 -0.867,-0.446 -1.793,-0.864 -2.782,-1.25 -0.96,-0.383 -1.918,-0.785 -2.875,-1.203 -0.96,-0.414 -1.851,-0.911 -2.671,-1.485 -0.813,-0.57 -1.461,-1.273 -1.938,-2.109 -0.48,-0.832 -0.719,-1.86 -0.719,-3.078 0,-0.664 0.125,-1.399 0.375,-2.203 0.258,-0.801 0.692,-1.563 1.297,-2.282 0.613,-0.718 1.446,-1.304 2.5,-1.765 1.051,-0.469 2.395,-0.703 4.031,-0.703 0.864,0 1.821,0.148 2.875,0.437 1.063,0.281 2.086,0.824 3.079,1.625 l -0.094,-1.828 h 2.015 v 8.406 h -1.531 c -0.074,-1.125 -0.336,-2.203 -0.781,-3.234 -0.449,-1.039 -1.105,-1.906 -1.969,-2.594 -0.855,-0.687 -1.976,-1.031 -3.359,-1.031 -1.469,0 -2.621,0.371 -3.453,1.109 -0.836,0.731 -1.25,1.574 -1.25,2.531 0,0.993 0.312,1.813 0.937,2.469 0.625,0.656 1.43,1.227 2.422,1.703 1,0.481 2.055,0.946 3.172,1.391 1.219,0.512 2.398,1.074 3.547,1.687 1.156,0.606 2.098,1.368 2.828,2.282 0.738,0.906 1.109,2.086 1.109,3.531 0,1.594 -0.406,2.922 -1.218,3.984 -0.813,1.055 -1.856,1.825 -3.125,2.313 -1.262,0.5 -2.579,0.75 -3.954,0.75 z"
       style="fill:none;stroke:#000000;stroke-width:0.72;stroke-linecap:round;stroke-linejoin:miter;stroke-miterlimit:4;stroke-dasharray:none;stroke-opacity:1"
       transform="scale(1.3333333)" />
  </g>
</svg>
