<?xml version="1.0" encoding="UTF-8" standalone="no"?>
<svg
   version="1.2"
   viewBox="0 0 599.00002 684.96"
   width="6.2395835in"
   height="7.1350002in"
   id="svg1"
   sodipodi:docname="PricePixelLogoWithWebAndPhone.svg"
   inkscape:version="1.3.2 (091e20ef0f, 2023-11-25, custom)"
   xmlns:inkscape="http://www.inkscape.org/namespaces/inkscape"
   xmlns:sodipodi="http://sodipodi.sourceforge.net/DTD/sodipodi-0.dtd"
   xmlns="http://www.w3.org/2000/svg"
   xmlns:svg="http://www.w3.org/2000/svg">
  <defs
     id="defs1" />
  <sodipodi:namedview
     id="namedview1"
     pagecolor="#ffffff"
     bordercolor="#000000"
     borderopacity="0.25"
     inkscape:showpageshadow="2"
     inkscape:pageopacity="0.0"
     inkscape:pagecheckerboard="0"
     inkscape:deskcolor="#d1d1d1"
     inkscape:zoom="0.39398998"
     inkscape:cx="299.5"
     inkscape:cy="246.19915"
     inkscape:window-width="2558"
     inkscape:window-height="1078"
     inkscape:window-x="1920"
     inkscape:window-y="1080"
     inkscape:window-maximized="1"
     inkscape:current-layer="svg1"
     inkscape:document-units="in" />
  <style
     id="style1">.a{fill:#2c9b65}</style>
  <path
     fill-rule="evenodd"
     class="a"
     d="m 577.13453,61.432253 5.5,2.9 c 4,2 6.4,4.2 12.1,12.7 l -0.1,118.799997 c 0,102.4 -0.2,119.1 -1.5,122 -0.8,1.7 -2.9,4.7 -4.7,6.5 -1.8,1.9 -4.7,4.1 -6.3,5 -2.6,1.4 -7.7,1.7 -71.5,2.2 l -2.5,-2.5 c -1.4,-1.4 -2.5,-3.4 -2.5,-4.5 0,-1.1 0.9,-2.9 2,-4 1.9,-1.9 3.3,-2 68,-2 l 6.5,-5.8 0.3,-114.6 c 0.2,-107.399997 0.1,-114.799997 -1.5,-118.099997 -1,-2 -2.5,-3.9 -3.3,-4.3 -0.8,-0.4 -16.5,-0.9 -68.2,-1.7 l -1.9,-2.5 c -1.1,-1.4 -2,-3.3 -1.9,-4.3 0,-0.9 0.9,-2.6 2,-3.7 1.9,-1.9 3.4,-2 69.5,-2.1 z M -5.6654661,138.53225 c 0.2,32.7 0.2,86 0,118.5 -0.1,32.4 -0.2,5.7 -0.2,-59.5 0,-65.2 0.1,-91.7 0.2,-59 z M 306.63453,3.9322526 c 17.1,0.2 25.7,0.8 31.5,2 4.4,0.9 10.7,2.4 14,3.2 3.3,0.9000004 10,2.9000004 15,4.6000004 4.9,1.7 13,4.9 18,7.2 4.9,2.4 12.6,6.4 17,9.1 4.4,2.6 12.3,7.9 17.5,11.8 5.2,3.9 13.5,10.9 18.4,15.6 4.8,4.7 11.9,12.4 15.6,17.1 3.7,4.7 9,11.9 11.7,16 2.8,4.1 7.1,11.299997 9.6,15.999997 2.5,4.7 6.1,12.6 8,17.5 2,4.9 4.9,13.7 6.6,19.5 1.6,5.8 3.8,14.6 4.7,19.5 1.5,7.2 1.8,14 1.8,33.5 0,22.9 -0.1,25.3 -2.7,37.5 -1.6,7.1 -4.5,18.2 -6.6,24.5 -2.1,6.3 -6.3,16.4 -9.3,22.5 -3,6.1 -7.7,14.4 -10.3,18.5 -2.6,4.1 -7.5,11.1 -10.9,15.5 -3.3,4.4 -10.3,12.3 -15.6,17.6 -5.2,5.2 -12.7,12 -16.5,15.1 -3.9,3 -10.8,8 -15.5,11.1 -4.7,3 -14.1,8.2 -21,11.5 -6.9,3.3 -17.2,7.6 -23,9.6 -5.8,1.9 -16.1,4.6 -23,6 -11.5,2.4 -14.6,2.6 -38,2.6 -23.4,0 -26.5,-0.2 -38,-2.6 -6.9,-1.4 -17.2,-4.1 -23,-6 -5.8,-2 -15.9,-6.1 -22.5,-9.3 -6.6,-3.1 -15.4,-7.9 -19.5,-10.6 -4.1,-2.6 -11.1,-7.5 -15.5,-10.9 -4.4,-3.3 -12.5,-10.6 -18,-16.1 -5.6,-5.5 -12.8,-13.6 -16.1,-18 -3.4,-4.4 -8.2,-11.3 -10.8,-15.3 -2.5,-3.9 -7.1,-12.3 -10.2,-18.4 -3.1,-6.2 -7.4,-16.7 -9.5,-23.3 -2.2,-6.6 -4.8,-16.3 -5.9,-21.5 -1.1,-5.2 -2.5,-14.2 -3.1,-20 -0.7,-6.4 -0.9,-17.3 -0.6,-28 0.5,-12.9 1.3,-20.7 3.2,-29.8 1.4,-6.7 4.2,-17.5 6.4,-23.9 2.1,-6.5 6.1,-16.5 8.9,-22.3 2.8,-5.8 8.2,-15.199997 12,-20.999997 3.7,-5.8 10.2,-14.6 14.4,-19.5 4.1,-4.9 10.9,-12.3 15.1,-16.3 4.3,-3.9 11.9,-10.3 16.9,-14.1 5.1,-3.8 12.9,-9 17.3,-11.6 4.4,-2.7 12,-6.7 17,-9.1 4.9,-2.3 13,-5.6 18,-7.2 4.9,-1.7 12.6,-3.9000004 17,-5.0000004 4.4,-1.1 11.4,-2.6 15.5,-3.2 4.1,-0.6 8.2,-1.3 9,-1.5 0.8,-0.2 12.1,-0.2 25,-0.1 z m -52.5,24.5000004 c -6.1,1.8 -15.7,5.4 -21.5,7.9 -5.8,2.6 -15.2,7.6 -20.9,11.2 -5.7,3.6 -14.7,10.1 -20,14.6 -5.3,4.4 -13.4,12.3 -18.1,17.5 -4.7,5.2 -11.2,13.5 -14.5,18.4 -3.2,4.999997 -8,13.099997 -10.6,17.999997 -2.7,4.9 -6.3,13.1 -8.2,18 -1.9,4.9 -4.6,13.5 -6,19 -1.4,5.5 -3.1,13.8 -3.8,18.5 -0.8,4.7 -1.3,15.9 -1.3,25 0,9.1 0.5,20.3 1.3,25 0.7,4.7 2.4,12.6 3.6,17.5 1.3,4.9 3.8,13.1 5.6,18 1.8,4.9 5.4,13.3 8,18.5 2.6,5.2 7.6,13.6 11.1,18.7 3.5,5 9.4,12.9 13.3,17.4 3.8,4.5 11.9,12.4 18,17.6 6,5.2 15.3,12.1 20.5,15.3 5.2,3.3 14.2,8.1 20,10.8 5.8,2.8 14.8,6.3 20,8 5.2,1.7 14.4,4.1 20.5,5.3 9.5,2 14,2.3 32.5,2.3 18.5,0 23,-0.3 32.5,-2.3 6,-1.2 15.3,-3.6 20.5,-5.3 5.2,-1.6 14.4,-5.4 20.5,-8.2 6,-2.9 14.8,-7.6 19.5,-10.6 4.7,-2.9 11.9,-8 16,-11.4 4.1,-3.3 11.1,-9.7 15.5,-14.1 4.4,-4.5 10.5,-11.5 13.6,-15.6 3.1,-4 8,-11.2 11,-15.9 2.9,-4.7 6.9,-12.1 9,-16.5 2,-4.4 5,-11.8 6.7,-16.5 1.6,-4.7 3.9,-12.3 5,-17 1.2,-4.7 2.6,-12.1 3.3,-16.5 0.7,-4.4 1.3,-15.4 1.3,-24.5 0,-9.1 -0.5,-20.3 -1.3,-25 -0.7,-4.7 -2.4,-12.8 -3.7,-18 -1.4,-5.2 -4.1,-13.8 -6,-19 -2,-5.2 -5.7,-13.6 -8.3,-18.5 -2.6,-4.9 -7.2,-12.8 -10.3,-17.499997 -3.1,-4.7 -9.3,-12.7 -13.7,-17.8 -4.5,-5 -12.2,-12.7 -17.2,-16.9 -5,-4.3 -12.3,-10 -16.2,-12.6 -4,-2.6 -10.4,-6.5 -14.2,-8.7 -3.9,-2.1 -10.8,-5.5 -15.5,-7.5 -4.7,-2 -13,-5 -18.5,-6.6 -5.5,-1.6 -15.2,-3.9 -21.5,-4.9 -8.6,-1.5 -15.9,-2 -29,-1.9 -11.7,0.1 -20.8,0.7 -27.5,1.8 -5.5,1 -15,3.2 -21,5 z m -212.399996,18.1 h 50.9 l 2.1,2.7 c 1.4,2 1.8,3.6 1.4,5.3 -0.4,1.4 -1.2,3.1 -1.8,3.8 -0.7,0.7 -2.6,1.7 -4.2,2.2 -2.7,0.7 -2.5,0.8 2,0.9 2.7,0 5.8,0.6 6.7,1.3 0.9,0.7 1.999996,2.4 2.299996,3.8 0.4,1.7 0,3.3 -3.299996,7.5 l -33.4,0.5 c -23.9,0.4 -33.9,0.9 -35.6,1.7 -1.2,0.7 -2.7,3 -3.2,5 -0.8,2.6 -1,40.499997 -0.5,231.499997 l 6.5,5.8 h 32.7 c 24.9,0 33.2,0.3 34.5,1.2 0.9,0.7 1.899996,2.5 2.199996,4 0.5,2.1 0,3.4 -4.299996,7.8 h -31.8 c -27.8,0 -32.5,-0.2 -37.2,-1.7 -3.2,-1.1 -6.7,-3.2 -8.8,-5.3 -1.8,-1.9 -4,-5 -4.8,-6.8 -1.3,-2.8 -1.5,-19.5 -1,-241.999997 l 3,-4.3 c 1.9,-2.7 5,-5.3 8.5,-7.1 4.7,-2.5 6.7,-2.9 14,-2.9 6.4,-0.1 7.7,-0.3 5.5,-0.9 -1.7,-0.5 -3.5,-1.5 -4.2,-2.2 -0.6,-0.7 -1.4,-2.4 -1.8,-3.8 -0.4,-1.8 0,-3.3 1.5,-5.3 z m 526.899996,39 2.7,2.5 c 2.7,2.3 2.8,2.7 2.8,12.499997 0,9.9 -0.1,10.3 -2.8,12.6 -2.7,2.4 -2.8,2.4 -51.7,2.4 l -3,-3 c -2.9,-2.8 -3,-3.3 -3,-11.5 0,-4.799997 0.5,-9.499997 1.2,-10.899997 0.7,-1.4 2.2,-3 3.3,-3.5 1.1,-0.5 12.9,-0.9 50.5,-1.1 z m -265,-41.5 c 6.8,0.2 13.4,0.7 14.5,1 1.3,0.4 3.6,4.1 7.1,11.8 2.9,6.2 6.8,15.5 8.9,20.7 2,5.3 5.6,16.3 8,24.499997 2.5,8.3 4.5,15.8 4.5,16.8 0,1 -0.5,2 -1,2.2 -0.6,0.3 -2.5,-0.3 -4.3,-1.4 -1.8,-1 -8.6,-4.6 -15.2,-7.8 -6.6,-3.3 -17,-8.1 -23,-10.5 -6.1,-2.499997 -18,-6.799997 -26.5,-9.599997 -8.6,-2.8 -20.3,-6.1 -26,-7.5 -5.8,-1.4 -14.1,-3.2 -18.5,-4 -4.4,-0.9 -10.6,-2.1 -13.8,-2.6 -3.4,-0.6 -5.7,-1.6 -5.7,-2.3 0,-0.7 3.5,-3.6 7.7,-6.4 4.3,-2.8 10.9,-6.7 14.8,-8.6 3.8,-1.9 9.9,-4.7 13.5,-6.2 3.5,-1.4 10.7,-3.8 16,-5.2 5.2,-1.4 13.3,-3.2 18,-3.9 4.9,-0.8 13.7,-1.2 21,-1 z m 62.8,13.1 c 2,0.9 7.4,3.7 12,6.2 4.5,2.6 11.6,7.2 15.7,10.2 4,3.1 10.2,8.3 13.7,11.6 3.4,3.3 9,9.1 12.3,13 3.3,3.799997 8.1,10.099997 10.6,13.899997 2.6,3.9 6.3,10.3 11.9,21.5 l -3.7,5.8 c -2,3.2 -6.4,9.3 -9.7,13.7 -3.3,4.4 -8.5,11 -11.5,14.5 -3.1,3.6 -10.1,11.4 -15.6,17.3 -5.5,6 -10.7,10.8 -11.5,10.8 -1.3,0 -1.7,-3.4 -2.8,-18.8 -0.7,-10.3 -1.9,-23.3 -2.7,-28.8 -0.8,-5.5 -2.2,-13.3 -3,-17.5 -0.7,-4.1 -2.5,-12.4 -3.9,-18.5 -1.4,-6 -4.3,-16.599997 -6.5,-23.499997 -2.1,-6.8 -5.5,-16.5 -7.4,-21.5 q -3.5,-9 -2.5,-10.2 c 0.7,-0.9 1.7,-0.9 4.6,0.3 z m -183.3,49.499997 c 1.6,0 8.4,0.6 15,1.4 6.6,0.8 16,2.2 21,3 4.9,0.9 13,2.6 18,3.7 4.9,1.1 12,2.9 15.7,3.9 q 6.8,1.9 6.8,3.4 c 0,0.9 -1,2.1 -2.3,2.7 -1.2,0.6 -7,4.3 -12.7,8.2 -5.8,3.8 -14.1,9.7 -18.5,13 -4.4,3.3 -11.2,8.7 -15,11.9 -3.9,3.3 -11.8,10.6 -17.5,16.2 -5.8,5.6 -13.8,13.8 -17.9,18.1 -4,4.4 -10.3,11.7 -14,16.2 -3.6,4.6 -7,8.3 -7.4,8.3 -0.4,0 -1.3,-1.3 -1.9,-2.8 -0.7,-1.7 -1.2,-8.8 -1.2,-18.8 -0.1,-12.7 0.4,-18.1 2.1,-26.5 1.2,-5.7 3.6,-14.7 5.4,-20 1.7,-5.2 5.1,-13.5 7.6,-18.5 2.4,-4.9 6.5,-12.2 9.1,-16.2 4.1,-6.4 5,-7.2 7.7,-7.2 z m 270.4,70 c 0.8,-0.1 1.6,1.1 1.8,2.7 0.1,1.5 0.6,7.9 0.9,14.2 0.4,8.3 0.1,14.6 -1,22.5 -0.9,6.1 -2.8,15.1 -4.1,20 -1.4,5 -3.7,12 -5.1,15.5 -1.5,3.6 -4.2,9.7 -6.2,13.5 -1.9,3.9 -5.6,10.2 -8.1,14 -2.6,3.8 -5.1,7 -5.6,7.3 -0.6,0.2 -7.3,-0.4 -15,-1.2 -7.7,-0.9 -17.6,-2.3 -22,-3 -4.4,-0.8 -11.2,-2.1 -15,-3 -3.9,-0.8 -9.7,-2.2 -13,-3.1 -3.3,-0.8 -7.7,-2 -9.8,-2.5 -2.3,-0.6 -3.6,-1.5 -3.5,-2.4 0.2,-0.8 7,-5.9 15.3,-11.4 8.2,-5.5 19.9,-14 26,-18.8 6,-4.8 17.9,-15.6 26.3,-23.8 8.4,-8.3 20.1,-20.8 26,-27.8 5.8,-7 11.3,-12.8 12.1,-12.8 z m -238.1,21 c 0.4,0 1.2,0.6 1.9,1.3 0.8,0.8 1.3,3.9 1.3,8.3 0,3.8 0.4,12.1 1,18.4 0.6,6.4 1.7,16.1 2.5,21.6 0.8,5.5 2.1,13.3 2.9,17.4 0.8,4.2 2.8,12.9 4.4,19.6 1.7,6.6 4.6,16.9 6.5,22.9 1.9,6.1 4.8,14.7 6.6,19.1 1.7,4.3 3.1,8.5 3.1,9.2 0,0.7 -0.7,1.3 -1.5,1.3 -0.9,0 -5.2,-1.9 -9.8,-4.2 -4.5,-2.2 -12.3,-6.9 -17.2,-10.2 -4.9,-3.4 -12.7,-9.8 -17.4,-14.2 -4.6,-4.3 -11,-11.1 -14.1,-15 -3.2,-3.8 -7.8,-10.1 -10.3,-14 -2.4,-3.8 -5.9,-9.8 -10.7,-19.4 l 2.2,-3.8 c 1.2,-2.1 5.2,-7.8 8.8,-12.8 3.6,-4.9 9.7,-12.6 13.4,-17 3.7,-4.3 11,-12.6 16.3,-18.2 5.2,-5.6 9.7,-10.3 10.1,-10.3 z m 46.2,74 c 0.6,0 6,2.7 12.2,6 6.2,3.2 17.7,8.6 25.5,12 7.9,3.3 20.2,8 27.5,10.5 7.3,2.4 18.7,5.8 25.3,7.4 6.6,1.7 17.7,4.2 24.7,5.6 7,1.4 13.9,2.5 15.3,2.5 1.7,0 2.4,0.5 2.2,1.7 -0.1,1 -3.4,3.9 -7.2,6.5 -3.9,2.6 -11.1,6.8 -16,9.2 -5,2.5 -11.3,5.4 -14,6.5 -2.8,1.1 -9.1,3.1 -14,4.4 -5,1.4 -12.6,3.1 -17,3.8 -4.4,0.7 -13,1.4 -19,1.4 -6.1,0 -13.2,-0.3 -20.5,-1.5 l -3.6,-7.7 c -2,-4.3 -5.8,-13.1 -8.4,-19.8 -2.6,-6.6 -6.4,-17.1 -8.3,-23.4 -2,-6.4 -4.2,-14 -5,-17.1 -0.8,-3 -1.2,-6 -1,-6.7 0.2,-0.7 0.8,-1.2 1.3,-1.2 z"
     id="path1" />
  <text
     xml:space="preserve"
     style="font-size:80px;font-family:'Playfair Display';-inkscape-font-specification:'Playfair Display, Normal';fill:#2c9b65;fill-opacity:1;stroke:#2c9b65;stroke-width:2.09386;stroke-linecap:round;stroke-opacity:1"
     x="69.837151"
     y="471.57889"
     id="text1"><tspan
       sodipodi:role="line"
       id="tspan1"
       x="69.837151"
       y="471.57889">PricePixel.ca</tspan></text>
  <text
     xml:space="preserve"
     style="font-style:normal;font-variant:normal;font-weight:normal;font-stretch:normal;font-size:80px;font-family:'Bookerly Display';-inkscape-font-specification:'Bookerly Display, Normal';font-variant-ligatures:normal;font-variant-caps:normal;font-variant-numeric:normal;font-variant-east-asian:normal;fill:#2c9b65;fill-opacity:1;stroke:#2c9b65;stroke-width:2.09386;stroke-linecap:round;stroke-opacity:1"
     x="42.193005"
     y="583.58728"
     id="text1-5"><tspan
       sodipodi:role="line"
       id="tspan2"
       x="42.193005"
       y="583.58728">705-818-1848</tspan></text>
</svg>
